<svg id="svg" version="1.1" xmlns="http://www.w3.org/2000/svg" xmlns:xlink="http://www.w3.org/1999/xlink" width="400" height="266.9029685423128" viewBox="0, 0, 400,266.9029685423128"><g id="svgg"><path id="path0" d="M336.021 35.365 C 317.550 42.715,302.313 48.801,302.163 48.889 C 301.915 49.034,293.463 52.406,254.233 68.010 C 243.525 72.269,241.963 72.845,241.650 72.651 C 241.336 72.455,241.321 72.461,241.522 72.705 C 241.781 73.018,232.903 76.709,232.495 76.457 C 232.382 76.387,232.335 76.404,232.390 76.494 C 232.490 76.655,138.939 113.964,138.299 114.018 C 138.119 114.033,137.925 114.106,137.870 114.181 C 137.670 114.450,128.135 118.174,128.135 117.983 C 128.135 117.876,128.035 117.915,127.913 118.071 C 127.791 118.226,122.627 120.364,116.438 122.821 C 110.248 125.277,99.163 129.679,91.803 132.603 C 84.444 135.526,77.825 138.137,77.093 138.404 C 72.773 139.982,0.123 169.009,0.056 169.183 C -0.011 169.359,29.943 244.978,30.171 245.205 C 30.245 245.280,97.303 218.674,97.868 218.346 C 98.036 218.248,104.775 215.544,112.844 212.335 C 120.913 209.127,157.621 194.524,194.417 179.885 C 231.214 165.245,261.400 153.247,261.498 153.223 C 261.595 153.198,261.874 153.095,262.118 152.993 C 267.500 150.749,271.956 149.083,272.075 149.271 C 272.177 149.432,272.215 149.417,272.217 149.216 C 272.220 148.936,275.560 147.586,308.906 134.384 C 359.132 114.499,399.875 98.252,399.940 98.084 C 399.981 97.976,393.545 81.625,385.637 61.748 C 377.728 41.872,370.940 24.792,370.552 23.793 C 370.163 22.794,369.791 21.982,369.725 21.989 C 369.660 21.996,354.493 28.015,336.021 35.365 M364.634 39.985 C 365.190 40.199,365.284 40.935,367.124 59.438 L 368.982 78.134 372.196 86.233 C 375.488 94.530,375.620 94.950,375.118 95.505 C 374.586 96.092,368.681 98.269,368.131 98.080 C 367.700 97.932,367.351 97.150,364.336 89.587 L 361.016 81.258 349.494 66.301 C 337.466 50.689,337.589 50.867,338.370 50.103 C 339.164 49.324,345.032 47.214,345.569 47.513 C 345.831 47.660,348.693 51.448,352.121 56.186 C 358.296 64.722,358.682 65.177,359.482 64.873 C 360.418 64.517,360.427 64.702,358.963 53.424 C 357.337 40.902,357.099 42.460,360.870 40.961 C 363.529 39.904,364.061 39.766,364.634 39.985 M333.966 52.129 C 334.309 52.285,334.596 52.797,335.234 54.389 C 341.181 69.220,354.453 102.879,354.453 103.131 C 354.453 103.843,349.372 106.336,347.918 106.336 C 347.181 106.336,346.795 105.512,342.855 95.525 C 338.355 84.121,338.549 84.537,337.728 84.537 C 336.088 84.537,336.046 84.164,339.114 97.071 C 341.963 109.062,341.849 108.437,341.294 108.938 C 340.834 109.354,335.478 111.475,334.888 111.475 C 334.192 111.475,334.006 111.194,327.809 100.753 C 321.248 89.698,321.329 89.811,320.280 90.397 C 319.380 90.900,319.437 91.088,323.961 102.502 C 326.305 108.418,328.223 113.370,328.223 113.508 C 328.223 114.409,322.842 116.858,321.878 116.396 C 321.266 116.103,322.381 118.798,311.137 90.450 C 300.696 64.131,301.121 65.276,301.595 64.713 C 302.111 64.099,311.280 60.580,311.823 60.786 C 312.380 60.998,311.731 59.948,320.756 75.230 C 329.057 89.286,328.857 88.998,329.907 88.436 C 330.714 88.004,330.690 87.875,326.918 72.009 C 323.704 58.491,323.294 56.602,323.486 56.197 C 323.670 55.810,324.446 55.439,328.401 53.849 C 333.551 51.777,333.338 51.843,333.966 52.129 M196.057 60.025 C 196.227 60.069,196.506 60.069,196.677 60.025 C 196.848 59.980,196.708 59.944,196.367 59.944 C 196.026 59.944,195.886 59.980,196.057 60.025 M203.500 60.025 C 203.671 60.069,203.950 60.069,204.121 60.025 C 204.291 59.980,204.152 59.944,203.810 59.944 C 203.469 59.944,203.330 59.980,203.500 60.025 M285.129 71.732 C 285.539 72.080,287.638 77.219,287.638 77.874 C 287.638 78.662,287.019 78.990,281.258 81.256 C 275.114 83.673,274.878 83.795,274.878 84.551 C 274.878 85.220,279.763 97.508,280.139 97.785 C 280.651 98.161,281.015 98.059,285.644 96.234 C 288.116 95.259,290.250 94.462,290.385 94.462 C 291.001 94.462,291.542 95.354,292.615 98.145 L 293.725 101.030 293.367 101.512 C 293.087 101.888,292.061 102.369,288.684 103.704 C 283.912 105.592,283.562 105.780,283.562 106.464 C 283.562 107.011,288.628 119.924,289.021 120.381 C 289.481 120.914,290.054 120.751,296.026 118.387 C 302.212 115.937,302.288 115.915,302.852 116.393 C 303.241 116.724,305.361 121.865,305.361 122.478 C 305.361 123.337,305.087 123.470,295.163 127.413 C 285.245 131.354,284.549 131.580,284.054 131.015 C 283.753 130.670,264.056 81.169,263.936 80.454 C 263.783 79.537,264.152 79.353,274.258 75.327 C 284.459 71.262,284.543 71.235,285.129 71.732 M149.747 79.708 L 149.136 80.372 149.801 79.761 C 150.419 79.193,150.547 79.043,150.411 79.043 C 150.382 79.043,150.083 79.342,149.747 79.708 M257.853 82.543 C 258.468 83.041,278.288 133.138,278.084 133.676 C 277.804 134.412,272.308 136.791,271.408 136.565 C 270.773 136.406,270.753 136.361,266.903 126.628 C 262.100 114.485,262.338 115.037,261.853 114.916 C 259.730 114.383,259.718 114.229,262.786 127.163 C 265.248 137.545,265.447 138.505,265.221 138.941 C 264.973 139.422,259.434 141.781,258.553 141.781 C 257.933 141.781,257.517 141.145,251.400 130.831 C 245.019 120.072,245.143 120.245,244.063 120.625 C 242.990 121.002,242.956 120.886,247.560 132.497 C 251.778 143.137,252.005 143.797,251.669 144.426 C 251.447 144.840,246.514 146.787,245.879 146.711 C 245.104 146.619,245.147 146.722,234.924 120.928 C 224.900 95.639,224.820 95.421,225.422 94.867 C 226.240 94.115,235.185 90.829,235.665 91.104 C 235.968 91.278,238.672 95.698,244.058 104.829 C 252.186 118.607,252.528 119.119,253.389 118.816 C 254.515 118.420,254.630 119.113,250.650 102.369 C 247.749 90.163,247.029 86.892,247.158 86.517 C 247.303 86.096,247.847 85.832,252.017 84.155 C 257.052 82.131,257.270 82.070,257.853 82.543 M146.025 83.429 L 145.414 84.094 146.079 83.483 C 146.697 82.915,146.825 82.765,146.690 82.765 C 146.660 82.765,146.361 83.064,146.025 83.429 M154.090 86.885 L 153.389 87.638 154.143 86.938 C 154.557 86.553,154.896 86.214,154.896 86.185 C 154.896 86.051,154.742 86.185,154.090 86.885 M216.623 100.038 C 219.953 101.058,222.860 104.048,224.790 108.437 C 225.889 110.936,225.808 111.054,222.011 112.521 C 218.313 113.949,218.332 113.951,217.482 111.891 C 215.927 108.120,213.938 107.061,211.086 108.486 C 208.571 109.743,208.248 112.224,210.116 115.933 C 211.706 119.091,214.221 120.802,221.952 123.982 C 230.530 127.510,234.243 131.041,236.482 137.795 C 239.037 145.505,236.652 151.205,229.674 154.065 C 221.759 157.309,215.903 154.403,212.311 145.450 C 211.055 142.319,210.893 142.571,215.230 140.894 C 218.758 139.529,218.625 139.487,219.763 142.313 C 221.333 146.207,222.564 147.338,224.898 147.028 C 227.824 146.641,229.412 144.404,228.729 141.635 C 227.580 136.979,224.886 134.655,216.803 131.346 C 207.937 127.717,204.236 124.522,201.857 118.444 C 199.427 112.234,199.929 107.348,203.345 103.958 C 206.686 100.645,212.756 98.852,216.623 100.038 M192.621 108.418 C 192.940 108.686,200.315 126.988,207.350 144.971 C 211.737 156.185,210.171 161.332,201.311 164.821 C 198.094 166.088,198.178 166.127,196.819 162.693 C 196.298 161.378,195.705 159.880,195.500 159.365 C 195.151 158.488,195.147 158.423,195.437 158.329 C 200.109 156.821,201.641 155.131,200.913 152.288 C 200.762 151.699,197.125 142.359,192.831 131.533 C 188.538 120.707,185.024 111.701,185.024 111.519 C 185.024 110.875,185.501 110.578,188.480 109.365 C 191.767 108.027,192.072 107.958,192.621 108.418 M165.197 119.628 C 165.472 120.005,165.798 122.867,167.379 138.768 L 169.238 157.466 172.435 165.499 C 175.702 173.710,175.880 174.288,175.295 174.818 C 174.883 175.190,169.311 177.403,168.783 177.403 C 168.003 177.404,167.668 176.724,164.481 168.661 L 161.270 160.538 149.839 145.710 C 138.127 130.518,138.002 130.340,138.434 129.571 C 138.800 128.920,145.066 126.450,145.721 126.699 C 146.017 126.811,148.191 129.672,152.327 135.395 C 158.580 144.045,158.853 144.375,159.607 144.186 C 160.693 143.913,160.704 144.233,159.212 132.740 C 157.583 120.189,157.349 121.737,161.101 120.217 C 164.081 119.009,164.683 118.923,165.197 119.628 M136.702 130.660 C 137.306 131.213,139.351 136.463,139.199 137.069 C 139.045 137.683,139.047 137.682,135.667 139.020 C 131.992 140.475,131.856 140.556,131.856 141.295 C 131.856 141.631,135.317 150.588,140.275 163.084 C 148.638 184.164,148.897 184.869,148.471 185.422 C 148.166 185.820,141.999 188.251,141.609 188.128 C 140.961 187.922,140.530 186.904,132.290 166.140 C 127.650 154.449,123.728 144.743,123.574 144.572 C 123.134 144.085,122.690 144.182,119.329 145.502 C 114.945 147.223,115.266 147.355,113.624 143.172 C 112.504 140.319,112.432 139.798,113.101 139.361 C 113.513 139.093,135.658 130.296,135.967 130.279 C 136.132 130.269,136.463 130.441,136.702 130.660 M109.027 141.737 C 109.325 142.086,129.198 192.124,129.198 192.525 C 129.198 193.590,122.449 196.308,121.529 195.614 C 121.295 195.437,110.129 167.583,102.594 148.382 C 100.805 143.821,100.658 144.242,104.591 142.639 C 107.625 141.402,108.576 141.209,109.027 141.737 M95.234 146.969 C 95.518 147.177,115.258 196.552,115.488 197.630 C 115.677 198.515,115.344 198.756,112.208 200.006 C 108.947 201.306,108.492 201.358,108.042 200.485 C 107.905 200.218,106.024 195.534,103.862 190.075 C 99.467 178.976,99.643 179.352,98.844 179.356 C 97.200 179.364,97.159 178.981,100.167 191.678 C 102.639 202.118,102.826 203.024,102.592 203.444 C 102.316 203.939,96.945 206.271,96.046 206.285 C 95.285 206.296,95.197 206.164,88.911 195.569 C 82.347 184.507,82.433 184.624,81.379 185.213 C 80.478 185.716,80.536 185.904,85.060 197.319 C 87.404 203.234,89.322 208.186,89.322 208.325 C 89.322 209.505,83.314 211.830,82.553 210.944 C 82.021 210.324,62.348 160.377,62.461 159.930 C 62.612 159.329,62.852 159.209,67.945 157.200 C 72.938 155.231,72.994 155.222,73.673 156.251 C 73.848 156.518,77.502 162.681,81.793 169.947 C 90.267 184.297,90.000 183.917,91.050 183.136 C 91.790 182.586,91.880 183.072,87.984 166.689 C 84.358 151.444,84.328 151.301,84.653 150.876 C 84.886 150.570,86.300 149.919,89.588 148.605 C 94.363 146.696,94.719 146.593,95.234 146.969 M56.499 162.472 C 56.897 162.819,76.739 212.684,76.739 213.340 C 76.739 214.275,70.387 217.038,69.370 216.546 C 68.830 216.285,48.914 166.616,48.914 165.532 C 48.914 164.815,49.278 164.589,52.462 163.334 C 55.645 162.079,55.966 162.010,56.499 162.472 M32.148 172.131 C 32.477 172.427,34.752 177.987,40.940 193.620 C 45.530 205.219,49.430 214.909,49.605 215.153 C 50.144 215.902,50.569 215.797,56.403 213.471 C 62.398 211.082,62.691 211.015,63.169 211.939 C 63.705 212.977,65.397 217.381,65.397 217.741 C 65.397 218.557,64.781 218.853,55.332 222.587 C 45.519 226.464,45.274 226.543,44.754 225.969 C 44.289 225.455,24.634 175.827,24.634 175.167 C 24.634 174.409,24.732 174.349,28.217 172.960 C 31.705 171.569,31.556 171.600,32.148 172.131 M245.896 178.689 L 244.838 179.796 245.946 178.738 C 246.555 178.157,247.054 177.658,247.054 177.631 C 247.054 177.500,246.879 177.660,245.896 178.689 M253.956 183.917 L 253.345 184.581 254.010 183.971 C 254.628 183.402,254.756 183.252,254.620 183.252 C 254.591 183.252,254.292 183.551,253.956 183.917 M250.144 187.727 L 249.623 188.303 250.199 187.783 C 250.736 187.297,250.857 187.151,250.720 187.151 C 250.689 187.151,250.430 187.410,250.144 187.727 M203.323 197.552 C 203.494 197.597,203.773 197.597,203.943 197.552 C 204.114 197.508,203.974 197.471,203.633 197.471 C 203.292 197.471,203.152 197.508,203.323 197.552 M196.057 207.300 C 196.227 207.344,196.506 207.344,196.677 207.300 C 196.848 207.255,196.708 207.219,196.367 207.219 C 196.026 207.219,195.886 207.255,196.057 207.300 M203.500 207.300 C 203.671 207.344,203.950 207.344,204.121 207.300 C 204.291 207.255,204.152 207.219,203.810 207.219 C 203.469 207.219,203.330 207.255,203.500 207.300 " stroke="none" fill="#6cac44" fill-rule="evenodd"></path><path id="path1" d="M360.870 40.961 C 357.099 42.460,357.337 40.902,358.963 53.424 C 360.427 64.702,360.418 64.517,359.482 64.873 C 358.682 65.177,358.296 64.722,352.121 56.186 C 348.693 51.448,345.831 47.660,345.569 47.513 C 345.032 47.214,339.164 49.324,338.370 50.103 C 337.589 50.867,337.466 50.689,349.494 66.301 L 361.016 81.258 364.336 89.587 C 367.351 97.150,367.700 97.932,368.131 98.080 C 368.681 98.269,374.586 96.092,375.118 95.505 C 375.620 94.950,375.488 94.530,372.196 86.233 L 368.982 78.134 367.124 59.438 C 366.101 49.155,365.187 40.596,365.092 40.418 C 364.661 39.613,364.068 39.689,360.870 40.961 M328.401 53.849 C 324.446 55.439,323.670 55.810,323.486 56.197 C 323.294 56.602,323.704 58.491,326.918 72.009 C 330.690 87.875,330.714 88.004,329.907 88.436 C 328.857 88.998,329.057 89.286,320.756 75.230 C 311.731 59.948,312.380 60.998,311.823 60.786 C 311.280 60.580,302.111 64.099,301.595 64.713 C 301.121 65.276,300.696 64.131,311.137 90.450 C 322.381 118.798,321.266 116.103,321.878 116.396 C 322.842 116.858,328.223 114.409,328.223 113.508 C 328.223 113.370,326.305 108.418,323.961 102.502 C 319.437 91.088,319.380 90.900,320.280 90.397 C 321.329 89.811,321.248 89.698,327.809 100.753 C 334.006 111.194,334.192 111.475,334.888 111.475 C 335.478 111.475,340.834 109.354,341.294 108.938 C 341.849 108.437,341.963 109.062,339.114 97.071 C 336.046 84.164,336.088 84.537,337.728 84.537 C 338.549 84.537,338.355 84.121,342.855 95.525 C 346.795 105.512,347.181 106.336,347.918 106.336 C 349.372 106.336,354.453 103.843,354.453 103.131 C 354.453 102.879,341.181 69.220,335.234 54.389 C 334.012 51.341,334.533 51.382,328.401 53.849 M196.190 60.005 C 188.495 60.655,183.833 61.517,177.935 63.378 C 155.035 70.604,137.186 88.384,129.916 111.210 C 129.167 113.562,128.135 117.449,128.135 117.918 C 128.135 118.105,129.485 117.637,132.984 116.235 L 137.833 114.293 138.586 112.042 C 151.066 74.726,193.770 57.135,229.152 74.737 L 232.787 76.545 237.262 74.766 C 239.723 73.787,241.737 72.956,241.737 72.919 C 241.737 72.565,235.294 68.788,232.051 67.240 C 221.135 62.029,206.701 59.118,196.190 60.005 M274.258 75.327 C 264.152 79.353,263.783 79.537,263.936 80.454 C 264.056 81.169,283.753 130.670,284.054 131.015 C 284.549 131.580,285.245 131.354,295.163 127.413 C 305.087 123.470,305.361 123.337,305.361 122.478 C 305.361 121.865,303.241 116.724,302.852 116.393 C 302.288 115.915,302.212 115.937,296.026 118.387 C 290.054 120.751,289.481 120.914,289.021 120.381 C 288.628 119.924,283.562 107.011,283.562 106.464 C 283.562 105.780,283.912 105.592,288.684 103.704 C 292.061 102.369,293.087 101.888,293.367 101.512 L 293.725 101.030 292.615 98.145 C 291.542 95.354,291.001 94.462,290.385 94.462 C 290.250 94.462,288.116 95.259,285.644 96.234 C 281.015 98.059,280.651 98.161,280.139 97.785 C 279.763 97.508,274.878 85.220,274.878 84.551 C 274.878 83.795,275.114 83.673,281.258 81.256 C 287.019 78.990,287.638 78.662,287.638 77.874 C 287.638 77.219,285.539 72.080,285.129 71.732 C 284.543 71.235,284.459 71.262,274.258 75.327 M252.017 84.155 C 247.847 85.832,247.303 86.096,247.158 86.517 C 247.029 86.892,247.749 90.163,250.650 102.369 C 254.630 119.113,254.515 118.420,253.389 118.816 C 252.528 119.119,252.186 118.607,244.058 104.829 C 238.672 95.698,235.968 91.278,235.665 91.104 C 235.185 90.829,226.240 94.115,225.422 94.867 C 224.820 95.421,224.900 95.639,234.924 120.928 C 245.147 146.722,245.104 146.619,245.879 146.711 C 246.514 146.787,251.447 144.840,251.669 144.426 C 252.005 143.797,251.778 143.137,247.560 132.497 C 242.956 120.886,242.990 121.002,244.063 120.625 C 245.143 120.245,245.019 120.072,251.400 130.831 C 257.517 141.145,257.933 141.781,258.553 141.781 C 259.434 141.781,264.973 139.422,265.221 138.941 C 265.447 138.505,265.248 137.545,262.786 127.163 C 259.718 114.229,259.730 114.383,261.853 114.916 C 262.338 115.037,262.100 114.485,266.903 126.628 C 270.753 136.361,270.773 136.406,271.408 136.565 C 272.308 136.791,277.804 134.412,278.084 133.676 C 278.288 133.138,258.468 83.041,257.853 82.543 C 257.270 82.070,257.052 82.131,252.017 84.155 M211.786 99.792 C 203.318 101.297,198.923 107.397,200.774 115.077 C 202.717 123.137,206.751 127.231,216.803 131.346 C 224.886 134.655,227.580 136.979,228.729 141.635 C 229.412 144.404,227.824 146.641,224.898 147.028 C 222.564 147.338,221.333 146.207,219.763 142.313 C 218.625 139.487,218.758 139.529,215.230 140.894 C 210.893 142.571,211.055 142.319,212.311 145.450 C 215.903 154.403,221.759 157.309,229.674 154.065 C 236.652 151.205,239.037 145.505,236.482 137.795 C 234.243 131.041,230.530 127.510,221.952 123.982 C 214.221 120.802,211.706 119.091,210.116 115.933 C 208.248 112.224,208.571 109.743,211.086 108.486 C 213.938 107.061,215.927 108.120,217.482 111.891 C 218.332 113.951,218.313 113.949,222.011 112.521 C 225.808 111.054,225.889 110.936,224.790 108.437 C 221.959 101.999,217.194 98.832,211.786 99.792 M188.480 109.365 C 185.501 110.578,185.024 110.875,185.024 111.519 C 185.024 111.701,188.538 120.707,192.831 131.533 C 197.125 142.359,200.762 151.699,200.913 152.288 C 201.641 155.131,200.109 156.821,195.437 158.329 C 195.147 158.423,195.151 158.488,195.500 159.365 C 195.705 159.880,196.298 161.378,196.819 162.693 C 198.178 166.127,198.094 166.088,201.311 164.821 C 210.171 161.332,211.737 156.185,207.350 144.971 C 200.315 126.988,192.940 108.686,192.621 108.418 C 192.072 107.958,191.767 108.027,188.480 109.365 M161.101 120.217 C 157.349 121.737,157.583 120.189,159.212 132.740 C 160.704 144.233,160.693 143.913,159.607 144.186 C 158.853 144.375,158.580 144.045,152.327 135.395 C 148.191 129.672,146.017 126.811,145.721 126.699 C 145.066 126.450,138.800 128.920,138.434 129.571 C 138.002 130.340,138.127 130.518,149.839 145.710 L 161.270 160.538 164.481 168.661 C 167.668 176.724,168.003 177.404,168.783 177.403 C 169.311 177.403,174.883 175.190,175.295 174.818 C 175.880 174.288,175.702 173.710,172.435 165.499 L 169.238 157.466 167.379 138.768 C 165.356 118.416,165.481 119.232,164.360 119.145 C 164.060 119.121,162.702 119.568,161.101 120.217 M124.499 134.754 C 112.194 139.666,112.938 139.338,112.703 139.954 C 112.508 140.467,114.423 145.626,115.075 146.345 C 115.596 146.920,115.840 146.872,119.329 145.502 C 122.690 144.182,123.134 144.085,123.574 144.572 C 123.728 144.743,127.650 154.449,132.290 166.140 C 140.530 186.904,140.961 187.922,141.609 188.128 C 141.999 188.251,148.166 185.820,148.471 185.422 C 148.897 184.869,148.638 184.164,140.275 163.084 C 135.317 150.588,131.856 141.631,131.856 141.295 C 131.856 140.556,131.992 140.475,135.667 139.020 C 139.047 137.682,139.045 137.683,139.199 137.069 C 139.351 136.463,137.306 131.213,136.702 130.660 C 136.082 130.091,136.690 129.887,124.499 134.754 M104.591 142.639 C 100.658 144.242,100.805 143.821,102.594 148.382 C 110.129 167.583,121.295 195.437,121.529 195.614 C 122.449 196.308,129.198 193.590,129.198 192.525 C 129.198 192.124,109.325 142.086,109.027 141.737 C 108.576 141.209,107.625 141.402,104.591 142.639 M89.588 148.605 C 86.300 149.919,84.886 150.570,84.653 150.876 C 84.328 151.301,84.358 151.444,87.984 166.689 C 91.880 183.072,91.790 182.586,91.050 183.136 C 90.000 183.917,90.267 184.297,81.793 169.947 C 77.502 162.681,73.848 156.518,73.673 156.251 C 72.994 155.222,72.938 155.231,67.945 157.200 C 62.852 159.209,62.612 159.329,62.461 159.930 C 62.348 160.377,82.021 210.324,82.553 210.944 C 83.314 211.830,89.322 209.505,89.322 208.325 C 89.322 208.186,87.404 203.234,85.060 197.319 C 80.536 185.904,80.478 185.716,81.379 185.213 C 82.433 184.624,82.347 184.507,88.911 195.569 C 95.197 206.164,95.285 206.296,96.046 206.285 C 96.945 206.271,102.316 203.939,102.592 203.444 C 102.826 203.024,102.639 202.118,100.167 191.678 C 97.159 178.981,97.200 179.364,98.844 179.356 C 99.643 179.352,99.467 178.976,103.862 190.075 C 106.024 195.534,107.905 200.218,108.042 200.485 C 108.492 201.358,108.947 201.306,112.208 200.006 C 115.344 198.756,115.677 198.515,115.488 197.630 C 115.258 196.552,95.518 147.177,95.234 146.969 C 94.719 146.593,94.363 146.696,89.588 148.605 M266.859 151.066 C 261.301 153.311,261.773 153.019,261.242 154.541 C 248.554 190.944,205.747 208.158,171.100 190.790 L 169.270 189.873 163.757 192.079 L 158.243 194.284 159.680 195.246 C 192.874 217.469,238.916 208.094,261.373 174.537 C 266.160 167.385,272.043 153.483,272.043 149.324 C 272.043 148.950,272.371 148.840,266.859 151.066 M52.462 163.334 C 49.278 164.589,48.914 164.815,48.914 165.532 C 48.914 166.616,68.830 216.285,69.370 216.546 C 70.387 217.038,76.739 214.275,76.739 213.340 C 76.739 212.684,56.897 162.819,56.499 162.472 C 55.966 162.010,55.645 162.079,52.462 163.334 M28.217 172.960 C 24.732 174.349,24.634 174.409,24.634 175.167 C 24.634 175.827,44.289 225.455,44.754 225.969 C 45.274 226.543,45.519 226.464,55.332 222.587 C 64.781 218.853,65.397 218.557,65.397 217.741 C 65.397 217.381,63.705 212.977,63.169 211.939 C 62.691 211.015,62.398 211.082,56.403 213.471 C 50.569 215.797,50.144 215.902,49.605 215.153 C 49.430 214.909,45.530 205.219,40.940 193.620 C 32.637 172.642,32.241 171.725,31.492 171.735 C 31.376 171.737,29.902 172.288,28.217 172.960 " stroke="none" fill="#fbfbfb" fill-rule="evenodd"></path><path id="path2" d="M201.225 2.863 C 174.602 20.849,155.015 38.179,148.698 49.338 L 148.107 50.382 147.327 48.186 C 146.899 46.978,144.721 40.408,142.488 33.584 C 137.533 18.445,137.616 18.687,137.365 18.744 C 137.123 18.799,112.150 31.718,111.976 31.879 C 111.659 32.170,108.788 46.735,107.412 55.029 C 103.184 80.513,102.619 100.830,105.903 109.229 C 106.068 109.651,102.845 108.037,91.228 101.881 C 81.096 96.511,75.447 93.565,75.397 93.624 C 75.268 93.777,66.279 120.663,66.281 120.892 C 66.285 121.488,77.058 138.237,77.438 138.237 C 77.538 138.237,83.822 135.773,91.402 132.762 C 98.982 129.751,110.248 125.276,116.438 122.818 C 122.627 120.360,127.747 118.298,127.815 118.235 C 127.883 118.173,128.257 116.885,128.646 115.374 C 141.145 66.840,196.902 44.682,239.518 71.314 C 240.783 72.105,241.870 72.775,241.934 72.804 C 241.997 72.832,247.542 70.671,254.255 68.001 C 260.968 65.331,274.435 59.976,284.183 56.100 C 293.930 52.225,301.962 49.002,302.032 48.938 C 302.120 48.856,297.462 40.437,297.149 40.112 C 297.133 40.096,294.927 39.720,292.246 39.277 C 259.409 33.846,233.096 32.981,221.253 36.944 C 220.209 37.294,219.336 37.558,219.314 37.531 C 219.255 37.463,222.070 31.555,226.936 21.533 C 232.139 10.815,233.231 8.512,233.227 8.261 C 233.224 8.073,206.328 -0.018,205.745 -0.006 C 205.590 -0.003,203.557 1.288,201.225 2.863 M195.835 67.997 C 169.575 69.878,147.230 87.023,138.758 111.792 C 138.348 112.990,138.056 114.012,138.108 114.064 C 138.160 114.116,159.425 105.719,185.363 95.405 C 227.000 78.847,232.487 76.622,232.212 76.408 C 231.538 75.883,225.042 72.822,222.951 72.045 C 214.354 68.850,204.487 67.377,195.835 67.997 M313.690 132.446 C 308.768 134.412,297.436 138.924,288.508 142.471 L 272.276 148.920 271.622 151.557 C 259.479 200.510,201.562 223.146,159.678 195.307 L 158.169 194.304 147.538 198.533 C 141.691 200.859,128.175 206.235,117.501 210.480 C 106.828 214.725,98.032 218.257,97.956 218.330 C 97.841 218.439,101.476 225.059,101.878 225.472 C 101.947 225.543,104.137 225.960,106.744 226.399 C 140.456 232.077,168.772 232.865,179.157 228.415 C 179.585 228.232,179.961 228.108,179.993 228.140 C 180.076 228.222,176.974 234.761,171.696 245.636 C 165.532 258.335,165.422 258.575,165.677 258.732 C 165.794 258.804,171.997 260.685,179.462 262.911 L 193.034 266.959 193.593 266.636 C 194.569 266.071,202.342 260.733,206.203 257.976 C 229.525 241.321,245.153 226.776,250.484 216.763 L 251.278 215.271 251.563 215.953 C 251.719 216.328,254.175 223.679,257.020 232.287 C 259.865 240.896,262.277 247.940,262.380 247.940 C 262.637 247.940,287.493 235.047,287.758 234.776 C 288.389 234.131,292.262 213.396,293.741 202.747 C 296.498 182.897,296.704 165.654,294.268 158.748 C 294.129 158.353,294.036 158.014,294.061 157.993 C 294.131 157.935,299.301 160.684,307.488 165.130 C 321.654 172.824,324.327 174.242,324.530 174.175 C 324.723 174.110,334.072 147.640,334.072 147.157 C 334.072 146.700,322.892 128.757,322.670 128.857 C 322.654 128.864,318.613 130.479,313.690 132.446 M215.546 171.475 C 190.272 181.533,169.556 189.800,169.510 189.847 C 169.385 189.971,173.723 192.005,176.250 193.006 C 207.406 205.348,243.036 191.789,257.997 161.896 C 259.482 158.929,261.767 153.390,261.567 153.240 C 261.529 153.211,240.819 161.417,215.546 171.475 " stroke="none" fill="#080a08" fill-rule="evenodd"></path></g></svg>